<svg width="619" height="463" viewBox="0 0 619 463" fill="none" xmlns="http://www.w3.org/2000/svg">
<path d="M600.805 262.742C587.699 230.775 567.349 204.29 537.984 185.704C507.782 166.653 472.281 156.338 436.692 155.13C433.809 141.47 429.534 127.995 423.678 114.706C376.751 8.76693 240.795 -29.7989 141.361 24.4717C82.2583 56.8109 41.2766 117.215 20.2746 179.942C-1.74963 245.736 -3.60831 317.849 4.19775 386.152C6.33512 404.737 9.03008 423.23 12.3755 441.631C15.1634 457.242 34.1209 465.976 48.3393 462.074C64.6945 457.614 71.5715 441.723 68.7835 426.112C67.4825 418.679 66.1816 411.241 65.0664 403.808C64.7878 401.859 64.5088 399.812 64.2302 397.861C64.2302 397.489 63.8583 395.073 63.6722 393.958C63.5793 393.122 63.4865 392.285 63.4865 392.193C63.115 389.219 62.7432 386.245 62.4646 383.179C60.7918 368.31 59.6766 353.348 59.119 338.387C58.4685 322.681 58.5614 306.884 59.3047 291.178C59.6766 283.93 60.2342 276.682 60.8846 269.433C61.2565 266.088 61.628 262.742 61.9998 259.397C61.9998 258.932 61.9998 258.746 62.0927 258.375C62.4646 256.144 62.7432 253.821 63.1146 251.591C65.4379 237.187 68.5049 222.875 72.5938 208.843C74.5452 202.152 76.6827 195.555 79.006 189.05C80.1212 185.983 81.2359 183.009 82.444 180.035C82.6301 179.478 82.8159 179.106 82.9087 178.734C83.7449 176.876 84.5815 175.017 85.4181 173.066C91.3656 160.149 98.2421 147.789 106.141 135.987C108.186 132.92 110.323 129.946 112.46 126.973C112.646 126.694 113.297 125.857 113.761 125.3C114.598 124.185 115.527 123.069 116.456 122.047C121.196 116.286 126.214 110.803 131.418 105.506C136.064 100.767 140.989 96.3063 146.008 92.0313C146.937 91.1951 151.676 87.5709 151.769 87.3851C153.907 85.8052 156.137 84.2253 158.367 82.7386C163.107 79.672 167.939 76.7908 172.864 74.0961C175.187 72.888 177.511 71.6799 179.834 70.6576C181.042 70.1 182.343 69.5424 183.551 68.9848C183.737 68.9848 183.737 68.9848 183.923 68.8919C194.517 65.0816 205.111 61.8293 216.262 59.7851C219.515 59.2275 223.883 58.8556 218.028 59.4132C220.909 59.1346 223.696 58.7627 226.577 58.577C232.246 58.1123 237.915 58.019 243.676 58.1123C248.973 58.2051 254.27 58.6699 259.567 59.1346C260.032 59.1346 260.403 59.1346 260.682 59.2275C261.054 59.2275 261.612 59.4132 262.262 59.5061C265.422 60.0637 268.488 60.6213 271.648 61.3646C276.48 62.4798 281.22 63.7807 285.959 65.1749C288.654 66.0111 291.349 66.9406 293.951 67.8696C295.252 68.3343 296.553 68.8919 297.947 69.3567C307.611 74.5608 317.276 79.0212 326.29 85.2476C326.941 85.7123 328.706 87.0133 329.915 87.9423C331.215 89.0575 334.096 91.3808 334.561 91.7527C338.836 95.4697 343.017 99.4658 346.921 103.648C348.686 105.506 350.359 107.365 351.939 109.223C352.961 110.431 355.284 113.498 355.563 113.777C358.444 117.866 361.325 122.047 363.927 126.415C366.808 131.247 369.317 136.266 371.733 141.284C372.104 142.027 372.29 142.492 372.476 142.864C372.476 143.143 372.662 143.328 372.755 143.7C373.963 146.952 375.171 150.205 376.286 153.55C377.123 156.06 377.587 158.662 378.331 161.171C328.056 173.066 281.22 201.223 245.999 238.209C219.608 265.995 196.747 298.148 192.008 337.086C186.989 377.974 214.961 416.725 255.85 423.882C277.874 427.785 298.226 424.531 318.205 414.68C332.888 407.435 346.27 397.675 358.537 386.896C383.163 365.429 403.052 337.271 416.617 307.627C430.371 277.518 439.013 245.829 440.967 213.861C443.008 213.954 445.053 214.047 447.099 214.233C448.584 214.326 450.073 214.512 451.558 214.698C452.022 214.698 452.583 214.884 453.231 215.069C460.665 216.556 468.102 218.136 475.347 220.459C478.693 221.482 481.948 222.69 485.29 223.991C485.29 223.991 490.498 226.221 491.427 226.686C498.672 230.217 505.737 234.213 512.522 238.766C513.915 239.696 515.216 240.625 516.516 241.554C516.516 241.554 516.516 241.554 516.608 241.647C518.746 243.506 520.884 245.365 522.837 247.316C525.159 249.546 527.296 251.87 529.434 254.286C530.27 255.215 531.107 256.237 531.943 257.259C532.036 257.445 532.128 257.538 532.316 257.817C535.658 262.835 538.912 267.853 541.794 273.243C543.28 276.031 544.673 278.912 545.973 281.885C546.718 283.837 547.462 285.696 548.207 287.647C552.574 299.914 555.452 312.645 557.682 325.469C557.778 326.027 557.87 326.585 557.962 327.142C557.962 327.793 558.15 328.629 558.242 329.001C558.518 332.346 558.987 335.785 559.171 339.13C559.635 345.914 559.915 352.698 560.007 359.388C560.007 372.12 559.263 384.851 557.87 397.49C557.87 398.326 557.778 398.79 557.682 399.255C557.682 399.534 557.686 399.72 557.498 400.184C557.033 403.16 556.569 406.226 556.013 409.2C554.988 414.868 553.779 420.536 552.386 426.204C548.763 441.075 557.125 458.635 572.833 462.17C587.979 465.608 604.891 457.614 608.794 441.723C622.92 384.293 623.849 318.128 601.081 262.742H600.805ZM62.0927 258.096C62.4646 254.657 62.2784 256.702 62.0927 258.096ZM382.791 182.637C382.791 183.474 382.791 183.474 382.512 180.5C382.512 180.5 382.512 180.593 382.512 180.686C382.512 181.336 382.605 181.987 382.698 182.73L382.791 182.637ZM359.559 228.637C358.816 229.009 358.351 229.195 359.559 228.637ZM367.272 275.102C369.223 270.827 367.737 273.987 367.272 275.102ZM369.317 269.991C368.666 271.663 368.016 273.336 367.365 275.009C367.365 275.195 367.179 275.288 367.086 275.567C364.02 282.164 360.86 288.669 357.328 295.081C353.983 301.029 350.452 306.79 346.642 312.366C344.876 314.968 343.017 317.57 341.159 320.08C337.813 324.726 340.044 321.473 340.787 320.544C339.393 322.31 338 323.982 336.512 325.655C332.145 330.673 327.591 335.506 322.852 340.152C320.343 342.568 317.741 344.892 315.046 347.215C314.024 348.051 313.001 348.887 311.979 349.724C311.793 349.91 311.7 350.002 311.607 350.096C311.329 350.281 311.143 350.467 310.678 350.746C305.381 354.463 299.992 357.995 294.23 361.154C291.349 362.734 288.468 364.221 285.494 365.615C283.543 366.172 281.591 366.544 279.64 367.009C279.268 366.916 274.529 367.288 273.228 367.288C272.763 367.288 270.997 367.288 269.882 367.194C269.325 367.194 268.674 367.009 268.581 367.009C267.466 366.73 260.868 364.407 261.333 364.964C260.125 364.314 259.01 363.663 257.802 363.013C257.337 362.734 256.965 362.548 256.686 362.362C256.686 362.269 256.593 362.083 256.222 361.712C255.478 360.968 254.735 360.225 254.084 359.482C253.713 359.017 253.155 358.366 252.969 357.995C252.226 356.694 251.482 355.392 250.832 354.091C250.832 353.72 250.739 353.441 250.646 352.976C250.46 351.768 250.181 350.56 249.902 349.352C249.902 349.26 249.902 349.166 249.902 349.073C250.088 347.308 249.902 345.449 249.902 343.776C249.902 342.94 250.367 340.245 250.367 339.873C253.248 325.376 257.244 318.128 266.165 304.839C267.28 303.166 268.395 301.494 269.604 299.914C269.789 299.635 269.975 299.449 270.068 299.263C272.299 296.475 274.715 293.78 277.038 291.086C281.963 285.417 286.888 279.841 292.185 274.544C297.204 269.526 302.407 264.786 307.798 260.233C313.652 255.401 313.931 255.029 322.201 249.454C334.282 241.276 347.106 234.213 360.488 228.173C360.86 227.987 361.232 227.801 361.417 227.801C363.183 227.15 364.949 226.407 366.714 225.756C370.246 224.455 373.777 223.247 377.401 222.132C378.981 221.668 380.561 221.203 382.048 220.831C381.862 222.318 381.769 223.247 381.955 222.504C379.632 235.607 376.751 248.524 372.476 261.162C371.454 264.136 370.431 267.11 369.317 270.083V269.991ZM531.479 256.795C530.827 255.958 530.827 255.865 531.479 256.795ZM557.59 326.77C557.498 326.027 557.406 325.748 557.59 326.77Z" fill="#2D7A3F"/>
<mask id="mask0_28_1152" style="mask-type:luminance" maskUnits="userSpaceOnUse" x="0" y="0" width="619" height="463">
<path d="M600.804 262.742C587.699 230.775 567.349 204.29 537.984 185.704C507.782 166.653 472.281 156.338 436.691 155.13C433.809 141.47 429.534 127.995 423.678 114.706C376.751 8.76693 240.795 -29.7989 141.361 24.4717C82.2583 56.8109 41.2766 117.215 20.2746 179.942C-1.74963 245.736 -3.60831 317.849 4.19775 386.152C6.33511 404.737 9.03008 423.23 12.3755 441.631C15.1634 457.15 34.1209 465.976 48.3393 462.074C64.6945 457.614 71.5714 441.723 68.7835 426.112C67.4825 418.679 66.1816 411.241 65.0664 403.808C64.7878 401.859 64.5088 399.812 64.2302 397.861C64.2302 397.489 63.8583 395.073 63.6722 393.958C63.5793 393.122 63.4865 392.285 63.4865 392.193C63.115 389.219 62.7431 386.245 62.4645 383.178C60.7918 368.309 59.6766 353.348 59.119 338.387C58.5614 322.681 58.5614 306.884 59.3047 291.178C59.6766 283.93 60.2342 276.682 60.8846 269.433C61.2565 266.088 61.6279 262.742 61.9998 259.397C61.9998 258.932 61.9998 258.746 62.0927 258.375C62.3717 256.144 62.7431 253.821 63.1146 251.591C65.4379 237.187 68.5049 222.875 72.5938 208.843C74.5452 202.152 76.6827 195.555 79.0059 189.05C80.1211 185.983 81.2359 183.009 82.444 180.035C82.6301 179.478 82.8159 179.106 82.9087 178.734C83.7449 176.876 84.5815 175.017 85.4181 173.066C91.3656 160.241 98.2421 147.789 106.141 135.987C108.186 132.92 110.323 129.946 112.46 126.973C112.646 126.694 113.296 125.857 113.668 125.3C114.504 124.185 115.434 123.07 116.363 121.955C121.103 116.193 126.121 110.71 131.325 105.413C135.971 100.674 140.896 96.213 145.915 91.9384C146.844 91.1022 151.583 87.478 151.676 87.2919C153.814 85.7123 156.044 84.1324 158.274 82.6454C162.921 79.5788 167.846 76.6979 172.771 74.0032C175.094 72.7951 177.418 71.5871 179.741 70.5647C180.949 70.0071 182.25 69.4495 183.458 68.8919C183.644 68.8919 183.644 68.8919 183.83 68.7991C194.424 64.9892 205.017 61.7364 216.169 59.6918C219.422 59.1346 223.789 58.7627 217.935 59.3203C220.815 59.0413 223.603 58.6699 226.484 58.4837C232.153 58.0194 237.822 57.9265 243.583 58.0194C248.88 58.1123 254.177 58.5766 259.474 59.0413C259.939 59.0413 260.31 59.0413 260.589 59.1346C260.961 59.1346 261.426 59.3203 262.169 59.4132C265.329 59.9708 268.395 60.5284 271.555 61.2717C276.388 62.3869 281.126 63.6878 285.866 65.0816C288.561 65.9182 291.256 66.8473 293.858 67.7767C295.159 68.2415 296.46 68.7991 297.854 69.2638C307.519 74.4675 317.183 78.9283 326.197 85.1543C326.847 85.6191 328.706 86.9204 329.822 87.8495C331.123 88.9647 334.003 91.2879 334.468 91.6598C338.743 95.3768 342.925 99.3729 346.827 103.555C348.5 105.413 350.266 107.272 351.846 109.13C352.868 110.338 355.191 113.405 355.47 113.684C358.351 117.773 361.232 121.955 363.833 126.322C366.714 131.155 369.223 136.173 371.639 141.191C372.011 141.934 372.197 142.399 372.383 142.771C372.383 143.05 372.569 143.235 372.662 143.607C373.87 146.86 375.078 150.112 376.1 153.457C376.937 155.966 377.401 158.569 378.145 161.078C327.87 172.973 281.034 201.13 245.813 238.116C219.422 265.902 196.561 298.055 191.822 336.992C186.804 377.882 214.775 416.633 255.664 423.79C277.688 427.693 298.04 424.439 318.02 414.588C332.702 407.339 346.084 397.582 358.351 386.803C382.977 365.336 402.863 337.178 416.433 307.534C430.187 277.425 438.829 245.736 440.778 213.768C442.824 213.861 444.869 213.954 446.911 214.14C448.4 214.233 449.885 214.419 451.374 214.605C451.838 214.605 452.395 214.791 453.047 214.977C460.48 216.463 467.914 218.043 475.163 220.366C478.509 221.389 481.76 222.597 485.106 223.898C485.106 223.898 490.31 226.128 491.238 226.593C498.488 230.124 505.549 234.12 512.333 238.673C513.726 239.603 515.031 240.532 516.332 241.461C516.332 241.461 516.328 241.461 516.424 241.554C518.562 243.413 520.699 245.271 522.649 247.223C524.974 249.453 527.112 251.776 529.245 254.193C530.082 255.122 530.919 256.144 531.755 257.166C531.851 257.352 531.943 257.445 532.127 257.724C535.474 262.742 538.728 267.76 541.606 273.15C543.095 275.938 544.488 278.819 545.789 281.793C546.534 283.744 547.274 285.603 548.019 287.554C552.386 299.821 555.268 312.552 557.498 325.376C557.59 325.934 557.686 326.491 557.778 327.049C557.778 327.699 557.962 328.536 558.054 328.908C558.334 332.253 558.799 335.691 558.987 339.037C559.451 345.821 559.727 352.605 559.819 359.295C559.819 372.027 559.079 384.758 557.682 397.397C557.682 398.233 557.59 398.698 557.498 399.162C557.498 399.441 557.498 399.627 557.313 400.091C556.849 403.063 556.385 406.134 555.824 409.104C554.804 414.776 553.595 420.444 552.202 426.112C548.575 440.979 556.941 458.543 572.644 462.074C587.791 465.512 604.707 457.522 608.61 441.631C622.736 384.2 623.665 318.035 600.897 262.649L600.804 262.742ZM62.0927 258.096C62.4645 254.657 62.2784 256.702 62.0927 258.096ZM382.791 182.637C382.791 183.474 382.791 183.567 382.512 180.5C382.512 180.5 382.512 180.593 382.512 180.686C382.512 181.336 382.605 181.987 382.698 182.73L382.791 182.637ZM359.652 228.544C358.816 228.916 358.351 229.102 359.652 228.544ZM367.272 275.102C369.223 270.827 367.737 273.987 367.272 275.102ZM369.317 269.991C368.666 271.663 368.016 273.336 367.365 275.009C367.365 275.195 367.179 275.288 367.086 275.567C364.02 282.164 360.86 288.669 357.328 295.081C353.983 301.029 350.452 306.79 346.642 312.366C344.876 314.968 343.017 317.57 341.159 320.079C337.813 324.726 340.044 321.473 340.787 320.544C339.393 322.31 337.999 323.982 336.512 325.655C332.145 330.673 327.591 335.506 322.852 340.152C320.343 342.568 317.741 344.892 315.046 347.215C314.024 348.051 313.001 348.887 311.979 349.724C311.793 349.91 311.7 350.002 311.607 350.096C311.329 350.281 311.143 350.467 310.678 350.746C305.381 354.463 299.992 357.995 294.23 361.154C291.349 362.734 288.468 364.221 285.494 365.615C283.543 366.172 281.591 366.544 279.64 367.009C279.268 366.916 274.529 367.288 273.228 367.288C272.763 367.288 270.997 367.288 269.882 367.194C269.324 367.194 268.674 367.009 268.581 367.009C267.466 366.73 260.868 364.407 261.333 364.964C260.125 364.314 259.01 363.663 257.801 363.013C257.337 362.734 256.965 362.548 256.686 362.362C256.686 362.269 256.593 362.083 256.222 361.712C255.478 360.968 254.735 360.225 254.084 359.482C253.713 359.017 253.155 358.366 252.969 357.995C252.226 356.694 251.482 355.392 250.832 354.091C250.832 353.72 250.739 353.441 250.646 352.976C250.46 351.768 250.181 350.56 249.902 349.352C249.902 349.26 249.902 349.166 249.902 349.073C250.088 347.308 249.902 345.449 249.902 343.776C249.902 342.94 250.367 340.245 250.367 339.873C253.248 325.376 257.244 318.128 266.165 304.839C267.28 303.166 268.395 301.494 269.603 299.914C269.789 299.635 269.975 299.449 270.068 299.263C272.299 296.475 274.715 293.78 277.038 291.086C281.963 285.417 286.888 279.841 292.185 274.544C297.204 269.526 302.407 264.786 307.798 260.233C313.652 255.401 313.931 255.029 322.201 249.454C334.282 241.276 347.106 234.213 360.395 228.173C360.767 227.987 361.138 227.801 361.324 227.801C363.09 227.15 364.856 226.407 366.621 225.756C370.153 224.455 373.684 223.247 377.308 222.132C378.888 221.668 380.468 221.203 381.955 220.831C381.769 222.318 381.676 223.247 381.862 222.504C379.539 235.607 376.658 248.524 372.383 261.162C371.361 264.136 370.339 267.11 369.223 270.083L369.317 269.991ZM531.479 256.888C530.827 256.051 530.827 255.958 531.479 256.888ZM557.59 326.77C557.498 326.12 557.498 325.841 557.59 326.77Z" fill="white"/>
</mask>
<g mask="url(#mask0_28_1152)">
<path d="M74.1734 424.623C72.8725 417.562 71.664 410.501 70.6421 403.436C70.2702 401.114 69.8987 398.698 69.6197 396.375C69.6197 396.375 68.7835 390.427 69.2483 393.865C69.7126 397.304 68.9693 391.449 68.9693 391.356C68.6907 388.94 68.4117 386.617 68.1331 384.201C66.4603 368.867 65.2522 353.441 64.6018 338.015C63.9513 322.589 64.0442 307.534 64.7875 292.387C65.1594 285.51 65.6237 278.54 66.2742 271.663C66.5531 268.225 67.0179 264.787 67.3897 261.441C67.4826 260.419 68.3188 254.564 67.3897 260.512C67.6683 258.281 68.0402 256.051 68.4117 253.821C70.7349 239.417 73.8019 225.199 77.7976 211.166C79.6561 204.847 81.6079 198.528 83.8379 192.209C84.9531 189.142 86.1611 186.076 87.2763 182.916C87.2763 182.637 89.4139 177.619 88.0201 180.965C86.7191 184.124 89.2277 178.177 89.5067 177.619C95.268 164.702 102.052 152.25 109.858 140.448C111.996 137.288 114.226 134.221 116.363 131.061C119.894 125.95 114.876 132.548 118.872 127.716C123.426 122.141 128.165 116.75 133.183 111.639C138.201 106.528 143.591 101.417 149.167 96.5847C151.583 94.4476 154.092 92.403 156.601 90.4516C151.212 94.7262 157.345 90.0797 159.483 88.5926C164.315 85.3403 169.333 82.2737 174.444 79.4861C176.767 78.1848 179.183 76.9768 181.507 75.8616C182.715 75.304 183.922 74.8396 185.131 74.1888C189.313 71.8655 179.555 76.1406 184.109 74.5606C194.795 70.8436 205.297 67.2194 216.448 65.1747C217.749 64.8961 225.741 63.5952 220.723 64.3385C215.705 65.0819 223.696 64.0595 224.997 63.9667C230.945 63.5019 236.892 63.2234 242.84 63.3162C247.951 63.3162 252.969 63.7809 258.08 64.2453C266.537 64.989 253.898 63.3162 260.125 64.5243C263.005 65.0819 265.979 65.5466 268.86 66.1971C273.785 67.3123 278.71 68.5203 283.543 70.007C285.959 70.7503 288.375 71.494 290.698 72.4231C292.278 72.9807 293.858 73.6312 295.438 74.1888C296.367 74.5606 301.571 76.791 297.11 74.8396C292.65 72.8878 299.805 76.2334 301.014 76.791C303.244 77.9062 305.567 79.021 307.704 80.2291C312.908 83.0171 317.926 86.0841 322.759 89.4296C323.781 90.173 330.193 94.7262 326.383 91.9386C322.573 89.1506 328.799 93.9829 329.821 94.8191C334.003 98.4433 338.092 102.161 341.902 106.157C343.947 108.294 345.991 110.524 347.943 112.848C348.779 113.777 353.704 120.003 350.916 116.379C348.128 112.755 352.868 119.167 353.518 120.189C355.284 122.698 356.957 125.3 358.537 127.902C361.51 132.827 364.205 138.031 366.714 143.235C367.272 144.443 367.83 145.744 368.387 146.952C368.201 146.581 366.343 141.191 367.458 144.908C368.387 147.975 369.688 150.948 370.71 154.015C372.662 159.869 374.242 165.817 375.543 171.858C376.193 174.738 376.472 177.712 377.216 180.5C378.237 184.403 377.122 179.106 377.029 178.548C377.308 180.5 377.494 182.544 377.68 184.589C378.237 191.094 378.331 197.599 378.145 204.104C378.052 207.171 377.866 210.237 377.68 213.211C377.494 215.441 376.472 224.548 377.401 217.765C375.449 231.332 372.197 244.807 367.922 257.91C366.9 260.976 365.878 264.043 364.763 267.017C364.113 268.783 361.231 275.938 363.462 270.641C360.488 277.611 357.142 284.395 353.518 290.993C350.452 296.661 347.106 302.144 343.482 307.534C341.438 310.694 339.207 313.668 337.07 316.734C334.747 319.986 337.256 316.548 337.628 315.99C336.326 317.663 334.933 319.243 333.632 320.916C329.543 325.748 325.268 330.395 320.714 334.762C318.484 336.9 316.161 339.037 313.838 341.174C312.258 342.569 310.678 343.87 309.098 345.17C311.7 342.94 311.143 343.776 308.82 345.449C303.801 348.98 298.69 352.419 293.3 355.485C290.605 356.972 287.817 358.273 285.123 359.76C284.658 360.039 280.011 361.805 283.729 360.504C288.003 359.017 279.454 361.34 278.618 361.526C284.193 360.411 276.666 361.526 274.529 361.526C272.205 361.526 265.05 360.039 270.533 361.433C268.767 360.969 261.24 358.645 266.351 360.875C264.864 360.225 263.47 359.389 261.983 358.552C256.872 355.764 267.931 363.385 259.939 357.158C259.753 356.972 256.315 352.976 258.359 355.672C260.403 358.366 257.43 353.999 257.337 353.813C254.642 348.051 257.337 356.693 256.129 350.56C254.921 343.962 255.571 354.184 255.757 347.4C255.757 345.821 255.757 344.241 255.85 342.568C255.943 337.178 254.735 347.493 255.85 342.103C259.01 327.514 262.541 320.173 272.484 305.768C273.506 304.282 274.529 302.795 275.644 301.401C274.715 302.702 272.298 305.211 276.759 300.099C278.989 297.498 281.219 294.896 283.45 292.387C288.189 286.904 293.114 281.607 298.318 276.589C303.523 271.57 309.005 266.738 314.581 262.092C319.227 258.189 313.187 262.835 318.205 259.304C321.458 256.981 324.618 254.75 327.87 252.52C334.003 248.524 340.23 244.714 346.642 241.183C349.615 239.603 352.589 238.023 355.656 236.536C357.607 235.607 365.32 232.075 363.741 232.726C360.488 234.12 365.599 231.983 365.785 231.983C367.365 231.425 368.945 230.774 370.524 230.217C373.684 229.102 376.844 227.987 380.003 227.057C387.438 224.734 394.965 222.876 402.679 221.389C404.164 221.11 412.434 219.716 409.556 220.18C406.674 220.645 414.944 219.716 416.433 219.53C424.147 218.973 431.952 218.88 439.666 219.251C443.008 219.437 446.262 219.716 449.609 219.995C453.696 220.367 449.236 219.995 448.584 219.809C450.257 220.088 451.93 220.367 453.512 220.645C461.317 222.132 468.935 224.084 476.464 226.593C478.137 227.15 485.198 229.753 483.621 229.102C482.04 228.452 489.009 231.611 490.59 232.447C498.115 236.164 505.084 240.625 512.057 245.178C515.308 247.316 511.125 244.342 510.756 244.064C511.869 244.993 512.986 245.829 514.007 246.851C516.144 248.71 518.19 250.661 520.235 252.706C522.277 254.75 524.138 256.795 525.995 258.932C526.924 259.954 527.853 261.07 528.689 262.185C525.715 258.467 527.296 260.326 529.061 263.114C532.128 267.946 535.102 272.779 537.704 277.89C538.26 279.098 541.795 286.439 540.213 282.908C538.82 279.748 542.163 287.926 542.723 289.599C546.998 301.772 549.876 314.318 552.014 327.049C552.11 327.607 552.758 332.625 552.202 328.35C551.549 323.797 552.386 330.116 552.478 331.231C552.758 334.205 553.039 337.271 553.223 340.245C553.687 346.75 553.967 353.255 553.967 359.76C553.967 372.399 553.131 384.944 551.83 397.489C551.085 404.461 552.758 392.379 551.642 399.255C551.085 402.323 550.621 405.481 550.064 408.548C549.04 414.032 547.835 419.419 546.534 424.811C542.163 442.468 552.202 463.375 570.879 467.65C589.557 471.925 609.074 462.262 613.722 443.304C627.94 385.037 629.241 317.756 606.1 261.534C592.719 228.916 572.552 201.595 542.723 182.265C511.033 161.728 473.582 150.763 435.947 149.555C363.834 147.231 291.999 181.987 242.654 233.377C215.89 261.163 192.007 294.152 186.711 333.276C180.856 377.231 207.155 419.047 251.389 428.806C324.896 445.162 390.318 374.722 419.127 314.783C448.676 253.357 457.971 182.452 431.019 118.423C383.906 6.4437 244.605 -37.7906 138.945 19.3608C78.727 51.9789 37.0017 113.219 15.2563 176.783C-6.48914 240.346 -9.46274 315.526 -1.74963 384.294C0.480665 403.996 3.26838 423.694 6.7997 443.212C10.331 462.726 32.7271 472.205 49.6403 467.558C69.1554 462.17 77.3328 443.304 73.9877 424.719L74.1734 424.623Z" fill="url(#paint0_linear_28_1152)"/>
<g style="mix-blend-mode:screen" opacity="0.17">
<path d="M74.1734 424.623C72.8725 417.562 71.664 410.501 70.6421 403.436C70.2702 401.114 69.8987 398.698 69.6197 396.375C69.6197 396.375 68.7835 390.427 69.2483 393.865C69.7126 397.304 68.9693 391.449 68.9693 391.356C68.6907 388.94 68.4117 386.617 68.1331 384.201C66.4603 368.867 65.2522 353.441 64.6018 338.015C63.9513 322.589 64.0442 307.534 64.7875 292.387C65.1594 285.51 65.6237 278.54 66.2742 271.663C66.5531 268.225 67.0179 264.787 67.3897 261.441C67.4826 260.419 68.3188 254.564 67.3897 260.512C67.6683 258.281 68.0402 256.051 68.4117 253.821C70.7349 239.417 73.8019 225.199 77.7976 211.166C79.6561 204.847 81.6079 198.528 83.8379 192.209C84.9531 189.142 86.1611 186.076 87.2763 182.916C87.2763 182.637 89.4139 177.619 88.0201 180.965C86.7191 184.124 89.2277 178.177 89.5067 177.619C95.268 164.702 102.052 152.25 109.858 140.448C111.996 137.288 114.226 134.221 116.363 131.061C119.894 125.95 114.876 132.548 118.872 127.716C123.426 122.141 128.165 116.75 133.183 111.639C138.201 106.528 143.591 101.417 149.167 96.5847C151.583 94.4476 154.092 92.403 156.601 90.4516C151.212 94.7262 157.345 90.0797 159.483 88.5926C164.315 85.3403 169.333 82.2737 174.444 79.4861C176.767 78.1848 179.183 76.9768 181.507 75.8616C182.715 75.304 183.922 74.8396 185.131 74.1888C189.313 71.8655 179.555 76.1406 184.109 74.5606C194.795 70.8436 205.297 67.2194 216.448 65.1747C217.749 64.8961 225.741 63.5952 220.723 64.3385C215.705 65.0819 223.696 64.0595 224.997 63.9667C230.945 63.5019 236.892 63.2234 242.84 63.3162C247.951 63.3162 252.969 63.7809 258.08 64.2453C266.537 64.989 253.898 63.3162 260.125 64.5243C263.005 65.0819 265.979 65.5466 268.86 66.1971C273.785 67.3123 278.71 68.5203 283.543 70.007C285.959 70.7503 288.375 71.494 290.698 72.4231C292.278 72.9807 293.858 73.6312 295.438 74.1888C296.367 74.5606 301.571 76.791 297.11 74.8396C292.65 72.8878 299.805 76.2334 301.014 76.791C303.244 77.9062 305.567 79.021 307.704 80.2291C312.908 83.0171 317.926 86.0841 322.759 89.4296C323.781 90.173 330.193 94.7262 326.383 91.9386C322.573 89.1506 328.799 93.9829 329.821 94.8191C334.003 98.4433 338.092 102.161 341.902 106.157C343.947 108.294 345.991 110.524 347.943 112.848C348.779 113.777 353.704 120.003 350.916 116.379C348.128 112.755 352.868 119.167 353.518 120.189C355.284 122.698 356.957 125.3 358.537 127.902C361.51 132.827 364.205 138.031 366.714 143.235C367.272 144.443 367.83 145.744 368.387 146.952C368.201 146.581 366.343 141.191 367.458 144.908C368.387 147.975 369.688 150.948 370.71 154.015C372.662 159.869 374.242 165.817 375.543 171.858C376.193 174.738 376.472 177.712 377.216 180.5C378.237 184.403 377.122 179.106 377.029 178.548C377.308 180.5 377.494 182.544 377.68 184.589C378.237 191.094 378.331 197.599 378.145 204.104C378.052 207.171 377.866 210.237 377.68 213.211C377.494 215.441 376.472 224.548 377.401 217.765C375.449 231.332 372.197 244.807 367.922 257.91C366.9 260.976 365.878 264.043 364.763 267.017C364.113 268.783 361.231 275.938 363.462 270.641C360.488 277.611 357.142 284.395 353.518 290.993C350.452 296.661 347.106 302.144 343.482 307.534C341.438 310.694 339.207 313.668 337.07 316.734C334.747 319.986 337.256 316.548 337.628 315.99C336.326 317.663 334.933 319.243 333.632 320.916C329.543 325.748 325.268 330.395 320.714 334.762C318.484 336.9 316.161 339.037 313.838 341.174C312.258 342.569 310.678 343.87 309.098 345.17C311.7 342.94 311.143 343.776 308.82 345.449C303.801 348.98 298.69 352.419 293.3 355.485C290.605 356.972 287.817 358.273 285.123 359.76C284.658 360.039 280.011 361.805 283.729 360.504C288.003 359.017 279.454 361.34 278.618 361.526C284.193 360.411 276.666 361.526 274.529 361.526C272.205 361.526 265.05 360.039 270.533 361.433C268.767 360.969 261.24 358.645 266.351 360.875C264.864 360.225 263.47 359.389 261.983 358.552C256.872 355.764 267.931 363.385 259.939 357.158C259.753 356.972 256.315 352.976 258.359 355.672C260.403 358.366 257.43 353.999 257.337 353.813C254.642 348.051 257.337 356.693 256.129 350.56C254.921 343.962 255.571 354.184 255.757 347.4C255.757 345.821 255.757 344.241 255.85 342.568C255.943 337.178 254.735 347.493 255.85 342.103C259.01 327.514 262.541 320.173 272.484 305.768C273.506 304.282 274.529 302.795 275.644 301.401C274.715 302.702 272.298 305.211 276.759 300.099C278.989 297.498 281.219 294.896 283.45 292.387C288.189 286.904 293.114 281.607 298.318 276.589C303.523 271.57 309.005 266.738 314.581 262.092C319.227 258.189 313.187 262.835 318.205 259.304C321.458 256.981 324.618 254.75 327.87 252.52C334.003 248.524 340.23 244.714 346.642 241.183C349.615 239.603 352.589 238.023 355.656 236.536C357.607 235.607 365.32 232.075 363.741 232.726C360.488 234.12 365.599 231.983 365.785 231.983C367.365 231.425 368.945 230.774 370.524 230.217C373.684 229.102 376.844 227.987 380.003 227.057C387.438 224.734 394.965 222.876 402.679 221.389C404.164 221.11 412.434 219.716 409.556 220.18C406.674 220.645 414.944 219.716 416.433 219.53C424.147 218.973 431.952 218.88 439.666 219.251C443.008 219.437 446.262 219.716 449.609 219.995C453.696 220.367 449.236 219.995 448.584 219.809C450.257 220.088 451.93 220.367 453.512 220.645C461.317 222.132 468.935 224.084 476.464 226.593C478.137 227.15 485.198 229.753 483.621 229.102C482.04 228.452 489.009 231.611 490.59 232.447C498.115 236.164 505.084 240.625 512.057 245.178C515.308 247.316 511.125 244.342 510.756 244.064C511.869 244.993 512.986 245.829 514.007 246.851C516.144 248.71 518.19 250.661 520.235 252.706C522.277 254.75 524.138 256.795 525.995 258.932C526.924 259.954 527.853 261.07 528.689 262.185C525.715 258.467 527.296 260.326 529.061 263.114C532.128 267.946 535.102 272.779 537.704 277.89C538.26 279.098 541.795 286.439 540.213 282.908C538.82 279.748 542.163 287.926 542.723 289.599C546.998 301.772 549.876 314.318 552.014 327.049C552.11 327.607 552.758 332.625 552.202 328.35C551.549 323.797 552.386 330.116 552.478 331.231C552.758 334.205 553.039 337.271 553.223 340.245C553.687 346.75 553.967 353.255 553.967 359.76C553.967 372.399 553.131 384.944 551.83 397.489C551.085 404.461 552.758 392.379 551.642 399.255C551.085 402.323 550.621 405.481 550.064 408.548C549.04 414.032 547.835 419.419 546.534 424.811C542.163 442.468 552.202 463.375 570.879 467.65C589.557 471.925 609.074 462.262 613.722 443.304C627.94 385.037 629.241 317.756 606.1 261.534C592.719 228.916 572.552 201.595 542.723 182.265C511.033 161.728 473.582 150.763 435.947 149.555C363.834 147.231 291.999 181.987 242.654 233.377C215.89 261.163 192.007 294.152 186.711 333.276C180.856 377.231 207.155 419.047 251.389 428.806C324.896 445.162 390.318 374.722 419.127 314.783C448.676 253.357 457.971 182.452 431.019 118.423C383.906 6.4437 244.605 -37.7906 138.945 19.3608C78.727 51.9789 37.0017 113.219 15.2563 176.783C-6.48914 240.346 -9.46274 315.526 -1.74963 384.294C0.480665 403.996 3.26838 423.694 6.7997 443.212C10.331 462.726 32.7271 472.205 49.6403 467.558C69.1554 462.17 77.3328 443.304 73.9877 424.719L74.1734 424.623Z" fill="url(#paint1_linear_28_1152)"/>
</g>
<g style="mix-blend-mode:overlay">
<mask id="mask1_28_1152" style="mask-type:luminance" maskUnits="userSpaceOnUse" x="149" y="131" width="235" height="268">
<g style="mix-blend-mode:overlay">
<path d="M369.501 137.008C369.501 137.008 390.503 181.428 380.652 227.986C371.36 272.127 356.491 303.723 326.196 336.249C295.901 368.774 178.81 398.604 178.81 398.604C178.81 398.604 126.677 307.998 162.083 238.673C197.489 169.255 260.402 130.224 295.065 131.711C329.727 133.198 369.501 137.008 369.501 137.008Z" fill="white"/>
</g>
</mask>
<g mask="url(#mask1_28_1152)">
<g style="mix-blend-mode:overlay" opacity="0.9">
<path d="M74.1685 424.623C72.8676 417.561 71.6591 410.5 70.6372 403.435C70.2653 401.114 69.8939 398.697 69.6149 396.374C69.6149 396.374 68.7787 390.426 69.2434 393.865C69.7077 397.303 68.9644 391.448 68.9644 391.356C68.6858 388.939 68.4068 386.616 68.1282 384.2C66.4554 368.867 65.2473 353.441 64.5969 338.014C63.9464 322.588 64.0393 307.533 64.7826 292.386C65.1545 285.509 65.6188 278.54 66.2693 271.663C66.5483 268.225 67.013 264.786 67.3849 261.441C67.4777 260.418 68.3139 254.564 67.3849 260.511C67.6635 258.281 68.0353 256.051 68.4068 253.82C70.7301 239.416 73.797 225.198 77.7927 211.166C79.6512 204.847 81.603 198.528 83.833 192.208C84.9482 189.142 86.1562 186.075 87.2714 182.916C87.2714 182.637 89.409 177.618 88.0152 180.964C86.7142 184.123 89.2228 178.176 89.5018 177.618C95.2631 164.702 102.047 152.249 109.853 140.447C111.991 137.287 114.221 134.221 116.358 131.061C119.89 125.95 114.872 132.548 118.867 127.716C123.421 122.14 128.16 116.75 133.179 111.639C138.197 106.528 143.586 101.417 149.162 96.5842C151.579 94.447 154.088 92.4024 156.596 90.451C151.207 94.7256 157.34 90.0791 159.478 88.5921C164.31 85.3397 169.328 82.2732 174.439 79.4856C176.762 78.1842 179.179 76.9762 181.502 75.861C182.71 75.3034 183.918 74.8391 185.126 74.1882C189.308 71.8649 179.55 76.14 184.104 74.5601C194.791 70.843 205.292 67.2188 216.443 65.1742C217.744 64.8956 225.736 63.5946 220.718 64.338C215.7 65.0813 223.692 64.059 224.992 63.9661C230.94 63.5014 236.887 63.2228 242.835 63.3156C247.946 63.3156 252.964 63.7804 258.075 64.2447C266.532 64.9884 253.893 63.3156 260.12 64.5237C263 65.0813 265.974 65.546 268.855 66.1965C273.78 67.3117 278.706 68.5198 283.538 70.0064C285.954 70.7497 288.37 71.4935 290.693 72.4225C292.273 72.9801 293.853 73.6306 295.433 74.1882C296.362 74.5601 301.566 76.7905 297.106 74.8391C292.645 72.8873 299.8 76.2329 301.009 76.7905C303.239 77.9056 305.562 79.0204 307.699 80.2285C312.904 83.0165 317.922 86.0835 322.754 89.4291C323.776 90.1724 330.188 94.7256 326.378 91.9381C322.568 89.1501 328.795 93.9823 329.816 94.8185C333.998 98.4427 338.087 102.16 341.897 106.156C343.942 108.293 345.986 110.524 347.938 112.847C348.774 113.776 353.699 120.002 350.911 116.378C348.123 112.754 352.863 119.166 353.513 120.188C355.279 122.698 356.952 125.299 358.532 127.901C361.505 132.827 364.201 138.031 366.71 143.235C367.267 144.443 367.825 145.744 368.382 146.952C368.196 146.58 366.338 141.19 367.453 144.907C368.382 147.974 369.683 150.948 370.705 154.014C372.657 159.869 374.237 165.817 375.538 171.857C376.188 174.738 376.467 177.712 377.211 180.499C378.233 184.402 377.117 179.105 377.025 178.548C377.303 180.499 377.489 182.544 377.675 184.588C378.233 191.093 378.326 197.598 378.14 204.103C378.047 207.17 377.861 210.236 377.675 213.21C377.489 215.441 376.467 224.548 377.396 217.764C375.445 231.331 372.192 244.806 367.918 257.909C366.895 260.976 365.873 264.043 364.758 267.017C364.108 268.782 361.226 275.938 363.457 270.641C360.483 277.61 357.138 284.394 353.513 290.992C350.447 296.66 347.102 302.144 343.477 307.533C341.433 310.693 339.202 313.667 337.065 316.734C334.742 319.986 337.251 316.547 337.623 315.99C336.321 317.663 334.928 319.243 333.627 320.915C329.538 325.748 325.263 330.394 320.71 334.762C318.479 336.899 316.156 339.037 313.833 341.174C312.253 342.568 310.673 343.869 309.093 345.17C311.695 342.939 311.138 343.776 308.815 345.448C303.796 348.98 298.685 352.418 293.296 355.485C290.6 356.971 287.812 358.273 285.118 359.76C284.653 360.038 280.007 361.804 283.724 360.503C287.999 359.016 279.449 361.339 278.613 361.526C284.188 360.41 276.661 361.526 274.524 361.526C272.201 361.526 265.045 360.038 270.528 361.432C268.762 360.968 261.235 358.645 266.346 360.875C264.859 360.224 263.465 359.388 261.978 358.551C256.867 355.764 267.926 363.384 259.934 357.158C259.748 356.972 256.31 352.976 258.354 355.671C260.399 358.366 257.425 353.998 257.332 353.812C254.637 348.05 257.332 356.693 256.124 350.56C254.916 343.961 255.566 354.184 255.752 347.4C255.752 345.82 255.752 344.24 255.845 342.568C255.938 337.178 254.73 347.493 255.845 342.103C259.005 327.513 262.536 320.172 272.479 305.768C273.501 304.281 274.524 302.794 275.639 301.4C274.71 302.701 272.293 305.21 276.754 300.099C278.985 297.497 281.215 294.895 283.445 292.386C288.184 286.903 293.109 281.606 298.314 276.588C303.518 271.57 309 266.738 314.576 262.091C319.222 258.188 313.182 262.835 318.201 259.303C321.453 256.98 324.613 254.75 327.865 252.519C333.999 248.523 340.225 244.713 346.637 241.182C349.611 239.602 352.584 238.023 355.651 236.536C357.602 235.606 365.315 232.075 363.736 232.725C360.483 234.119 365.594 231.982 365.78 231.982C367.36 231.425 368.94 230.774 370.519 230.217C373.679 229.101 376.839 227.986 379.998 227.057C387.433 224.734 394.96 222.875 402.674 221.388C404.159 221.109 412.429 219.715 409.551 220.18C406.669 220.645 414.939 219.716 416.428 219.53C424.142 218.972 431.947 218.879 439.661 219.251C443.003 219.437 446.257 219.716 449.604 219.994C453.691 220.366 449.232 219.994 448.579 219.808C450.252 220.087 451.926 220.366 453.507 220.645C461.312 222.132 468.93 224.083 476.459 226.592C478.132 227.15 485.193 229.752 483.616 229.101C482.035 228.451 489.004 231.61 490.585 232.447C498.11 236.164 505.079 240.625 512.052 245.178C515.303 247.315 511.12 244.342 510.751 244.063C511.864 244.992 512.981 245.828 514.002 246.851C516.139 248.709 518.185 250.661 520.23 252.705C522.272 254.75 524.133 256.794 525.99 258.932C526.919 259.954 527.848 261.069 528.684 262.184C525.71 258.467 527.291 260.325 529.057 263.113C532.123 267.946 535.097 272.778 537.699 277.889C538.255 279.097 541.79 286.438 540.208 282.907C538.815 279.748 542.158 287.925 542.718 289.598C546.993 301.772 549.871 314.317 552.009 327.049C552.105 327.606 552.753 332.625 552.197 328.349C551.545 323.796 552.381 330.115 552.473 331.23C552.753 334.204 553.034 337.271 553.218 340.244C553.682 346.749 553.962 353.255 553.962 359.76C553.962 372.398 553.126 384.943 551.825 397.489C551.08 404.46 552.753 392.378 551.637 399.254C551.08 402.323 550.616 405.481 550.06 408.547C549.035 414.031 547.83 419.419 546.529 424.811C542.158 442.467 552.197 463.374 570.874 467.649C589.552 471.924 609.07 462.261 613.717 443.304C627.935 385.036 629.236 317.756 606.096 261.533C592.714 228.915 572.548 201.594 542.718 182.265C511.028 161.728 473.577 150.762 435.942 149.554C363.829 147.231 291.994 181.986 242.649 233.376C215.886 261.162 192.003 294.152 186.706 333.275C180.851 377.23 207.15 419.047 251.384 428.806C324.891 445.161 390.313 374.721 419.122 314.782C448.671 253.356 457.966 182.451 431.015 118.423C383.901 6.44312 244.6 -37.7912 138.94 19.3602C78.7222 51.9784 36.9968 113.219 15.2514 176.782C-6.49402 240.346 -9.46763 315.525 -1.75452 384.293C0.475783 403.996 3.2635 423.694 6.79481 443.212C10.3261 462.726 32.7222 472.204 49.6354 467.557C69.1505 462.169 77.328 443.304 73.9828 424.719L74.1685 424.623Z" fill="url(#paint2_linear_28_1152)"/>
</g>
</g>
</g>
<mask id="mask2_28_1152" style="mask-type:luminance" maskUnits="userSpaceOnUse" x="426" y="106" width="250" height="408">
<path d="M426.002 120.744C426.002 120.744 438.639 149.273 440.776 183.843C442.914 218.506 437.154 243.968 437.154 243.968L481.946 243.503L524.508 479.544L675.051 513.649V222.037L516.33 106.805L426.094 120.744H426.002Z" fill="white"/>
</mask>
<g mask="url(#mask2_28_1152)">
<g style="mix-blend-mode:overlay">
<path d="M79.7727 430.233C78.4717 423.172 77.2637 416.111 76.2414 409.046C75.8695 406.724 75.498 404.308 75.2194 401.985C75.2194 401.985 74.3828 396.037 74.8476 399.475C75.3123 402.914 74.5686 397.059 74.5686 396.966C74.29 394.55 74.011 392.227 73.7324 389.811C72.0596 374.477 70.8515 359.051 70.2011 343.625C69.5506 328.199 69.6435 313.144 70.3872 297.997C70.7586 291.12 71.223 284.15 71.8738 277.273C72.1524 273.835 72.6172 270.397 72.989 267.051C73.0819 266.029 73.9185 260.174 72.989 266.122C73.2676 263.891 73.6395 261.661 74.011 259.431C76.3342 245.027 79.4012 230.809 83.3973 216.777C85.2558 210.457 87.2072 204.138 89.4376 197.819C90.5524 194.752 91.7604 191.686 92.8756 188.526C92.8756 188.247 95.0132 183.229 93.6194 186.575C92.3184 189.734 94.827 183.787 95.106 183.229C100.868 170.312 107.651 157.86 115.457 146.058C117.595 142.898 119.825 139.831 121.963 136.671C125.494 131.561 120.476 138.159 124.472 133.326C129.025 127.751 133.764 122.36 138.783 117.25C143.801 112.138 149.191 107.028 154.767 102.195C157.183 100.058 159.692 98.0131 162.201 96.0617C156.811 100.336 162.944 95.6898 165.082 94.2028C169.914 90.9505 174.932 87.8839 180.043 85.0963C182.367 83.795 184.783 82.5869 187.106 81.4717C188.314 80.9141 189.522 80.4498 190.73 79.7989C194.912 77.4757 185.155 81.7507 189.708 80.1708C200.395 76.4537 210.896 72.8295 222.047 70.7849C223.348 70.5063 231.34 69.2054 226.322 69.9487C221.304 70.692 229.296 69.6697 230.597 69.5768C236.544 69.1121 242.492 68.8335 248.439 68.9264C253.55 68.9264 258.569 69.3911 263.679 69.8554C272.136 70.5992 259.498 68.9264 265.724 70.1344C268.605 70.692 271.579 71.1567 274.46 71.8072C279.385 72.9224 284.31 74.1305 289.142 75.6171C291.558 76.3605 293.975 77.1042 296.298 78.0333C297.877 78.5909 299.457 79.2413 301.037 79.7989C301.966 80.1708 307.17 82.4012 302.71 80.4498C298.249 78.498 305.405 81.8436 306.613 82.4012C308.843 83.5164 311.166 84.6312 313.304 85.8392C318.508 88.6272 323.526 91.6942 328.358 95.0398C329.38 95.7831 335.792 100.336 331.983 97.5488C328.172 94.7608 334.399 99.593 335.421 100.429C339.603 104.053 343.691 107.771 347.502 111.767C349.546 113.904 351.591 116.134 353.542 118.458C354.379 119.387 359.304 125.613 356.516 121.989C353.728 118.365 358.467 124.777 359.118 125.799C360.883 128.308 362.556 130.91 364.136 133.512C367.11 138.438 369.805 143.641 372.314 148.845C372.871 150.053 373.429 151.354 373.987 152.562C373.8 152.191 371.942 146.801 373.057 150.518C373.987 153.585 375.287 156.558 376.31 159.625C378.261 165.48 379.841 171.427 381.142 177.468C381.793 180.349 382.072 183.322 382.815 186.11C383.837 190.013 382.722 184.716 382.629 184.159C382.908 186.11 383.093 188.155 383.279 190.199C383.837 196.704 383.93 203.209 383.744 209.714C383.651 212.781 383.465 215.847 383.279 218.821C383.093 221.051 382.071 230.159 383.001 223.375C381.049 236.942 377.796 250.417 373.522 263.52C372.499 266.587 371.478 269.654 370.362 272.627C369.712 274.393 366.831 281.548 369.061 276.251C366.087 283.221 362.742 290.005 359.118 296.603C356.051 302.271 352.706 307.754 349.082 313.144C347.037 316.304 344.807 319.278 342.669 322.344C340.346 325.597 342.855 322.158 343.227 321.601C341.926 323.273 340.532 324.853 339.231 326.526C335.142 331.358 330.867 336.005 326.314 340.372C324.083 342.51 321.76 344.647 319.437 346.785C317.857 348.179 316.277 349.48 314.697 350.781C317.3 348.55 316.742 349.386 314.419 351.059C309.4 354.59 304.29 358.029 298.9 361.096C296.205 362.582 293.417 363.884 290.722 365.371C290.257 365.649 285.611 367.415 289.328 366.114C293.603 364.627 285.053 366.95 284.217 367.136C289.792 366.021 282.265 367.136 280.128 367.136C277.805 367.136 270.649 365.649 276.132 367.043C274.366 366.579 266.839 364.255 271.951 366.485C270.463 365.835 269.07 364.999 267.583 364.162C262.472 361.375 273.53 368.995 265.538 362.768C265.352 362.583 261.914 358.587 263.958 361.282C266.003 363.976 263.029 359.609 262.936 359.423C260.241 353.661 262.936 362.304 261.728 356.17C260.52 349.572 261.17 359.795 261.356 353.011C261.356 351.431 261.357 349.851 261.449 348.178C261.542 342.788 260.334 353.103 261.449 347.714C264.609 333.124 268.14 325.783 278.083 311.378C279.106 309.892 280.128 308.405 281.243 307.011C280.314 308.312 277.898 310.821 282.358 305.71C284.589 303.108 286.819 300.506 289.049 297.997C293.789 292.514 298.714 287.217 303.918 282.199C309.122 277.18 314.605 272.348 320.18 267.702C324.827 263.799 318.786 268.445 323.805 264.914C327.057 262.591 330.217 260.36 333.47 258.13C339.603 254.134 345.829 250.324 352.241 246.793C355.215 245.213 358.188 243.633 361.255 242.146C363.207 241.217 370.92 237.686 369.34 238.336C366.087 239.73 371.199 237.593 371.384 237.593C372.964 237.035 374.544 236.385 376.124 235.827C379.284 234.712 382.443 233.597 385.602 232.668C393.037 230.344 400.564 228.486 408.278 226.999C409.763 226.72 418.033 225.326 415.155 225.791C412.273 226.255 420.543 225.326 422.032 225.141C429.746 224.583 437.551 224.49 445.265 224.862C448.607 225.047 451.861 225.326 455.208 225.605C459.295 225.977 454.835 225.605 454.183 225.419C455.856 225.698 457.529 225.977 459.11 226.255C466.916 227.742 474.537 229.694 482.063 232.203C483.736 232.76 490.797 235.363 489.22 234.712C487.639 234.062 494.608 237.221 496.189 238.057C503.714 241.774 510.683 246.235 517.656 250.788C520.907 252.926 516.728 249.952 516.355 249.674C517.468 250.603 518.585 251.439 519.606 252.461C521.743 254.32 523.789 256.272 525.834 258.316C527.876 260.36 529.737 262.405 531.594 264.542C532.523 265.565 533.452 266.68 534.288 267.795C531.314 264.078 532.895 265.936 534.66 268.724C537.727 273.556 540.701 278.389 543.303 283.5C543.863 284.708 547.393 292.049 545.812 288.518C544.419 285.358 547.766 293.536 548.322 295.209C552.597 307.382 555.475 319.928 557.613 332.659C557.709 333.217 558.357 338.235 557.801 333.96C557.148 329.407 557.985 335.726 558.077 336.841C558.357 339.815 558.637 342.881 558.822 345.855C559.286 352.36 559.566 358.866 559.566 365.371C559.566 378.009 558.73 390.554 557.429 403.099C556.684 410.071 558.357 397.989 557.244 404.865C556.684 407.933 556.22 411.092 555.663 414.158C554.643 419.642 553.434 425.03 552.133 430.421C547.766 448.078 557.801 468.985 576.478 473.26C595.159 477.535 614.673 467.872 619.321 448.915C633.539 390.647 634.84 323.366 611.699 267.144C598.318 234.526 578.151 207.205 548.322 187.876C516.631 167.339 479.181 156.373 441.546 155.165C369.433 152.841 297.599 187.597 248.253 238.987C221.49 266.773 197.607 299.763 192.31 338.886C186.456 382.841 212.754 424.657 256.989 434.416C330.496 450.772 395.918 380.332 424.726 320.393C454.279 258.967 463.57 188.062 436.622 124.033C389.506 12.0538 250.205 -32.1805 144.544 24.9709C84.3263 57.5891 42.6011 118.83 20.8557 182.393C-0.889778 245.957 -3.86338 321.136 3.84974 389.904C6.08004 409.607 8.86775 429.305 12.3991 448.822C15.9304 468.336 38.3264 477.815 55.2396 473.168C74.7547 467.78 82.9325 448.915 79.5869 430.329L79.7727 430.233Z" fill="url(#paint3_linear_28_1152)"/>
</g>
</g>
</g>
<defs>
<linearGradient id="paint0_linear_28_1152" x1="19.3452" y1="404.273" x2="531.383" y2="165.445" gradientUnits="userSpaceOnUse">
<stop stop-color="white" stop-opacity="0.08"/>
<stop offset="0.33" stop-color="white" stop-opacity="0"/>
</linearGradient>
<linearGradient id="paint1_linear_28_1152" x1="15.0705" y1="391.17" x2="537.239" y2="169.534" gradientUnits="userSpaceOnUse">
<stop offset="0.1" stop-color="white" stop-opacity="0"/>
<stop offset="0.5" stop-color="white" stop-opacity="0.44"/>
<stop offset="1" stop-color="white"/>
</linearGradient>
<linearGradient id="paint2_linear_28_1152" x1="509.727" y1="153.178" x2="40.6214" y2="446.278" gradientUnits="userSpaceOnUse">
<stop/>
<stop offset="0.46" stop-opacity="0"/>
</linearGradient>
<linearGradient id="paint3_linear_28_1152" x1="20.6699" y1="396.78" x2="542.838" y2="175.144" gradientUnits="userSpaceOnUse">
<stop offset="0.68"/>
<stop offset="1" stop-opacity="0"/>
</linearGradient>
</defs>
</svg>
